<?xml version="1.0" encoding="UTF-8"?>
<svg xmlns="http://www.w3.org/2000/svg" width="900" height="780" viewBox="0 0 680 590" role="img">
<title>Antibiotic development and resistance timeline 1940–2024</title>
<desc>Horizontal timeline showing antibiotic class introductions below the axis and resistance emergence events above. Includes erm(B), AMEs, polymyxin reintroduction, and cephalosporin generation breakout.</desc>
<style>
  .th { font-family: 'Helvetica Neue', Helvetica, Arial, sans-serif; font-size: 14px; font-weight: 500; fill: #2C2C2A; }
  .ts { font-family: 'Helvetica Neue', Helvetica, Arial, sans-serif; font-size: 12px; font-weight: 400; fill: #5F5E5A; }
</style>
<rect x="0" y="0" width="680" height="590" fill="#FFFFFF"/>
<circle cx="60" cy="22" r="4" fill="#D85A30"/>
<text class="ts" x="72" y="26">Resistance emergence</text>
<circle cx="232" cy="22" r="4" fill="#1D9E75"/>
<text class="ts" x="244" y="26">New class</text>
<circle cx="334" cy="22" r="4" fill="#FFFFFF" stroke="#1D9E75" stroke-width="1.5"/>
<text class="ts" x="346" y="26">Reintroduction</text>
<rect x="450" y="17" width="14" height="10" fill="#888780" fill-opacity="0.15" stroke="#888780" stroke-width="0.5" stroke-dasharray="2 2"/>
<text class="ts" x="470" y="26">Discovery void (1987–2000)</text>
<rect x="375" y="55" width="92" height="520" fill="#888780" fill-opacity="0.07"/>
<line x1="375" y1="55" x2="375" y2="575" stroke="#888780" stroke-width="0.5" stroke-dasharray="3 3"/>
<line x1="467" y1="55" x2="467" y2="575" stroke="#888780" stroke-width="0.5" stroke-dasharray="3 3"/>
<line x1="50" y1="270" x2="640" y2="270" stroke="#5F5E5A" stroke-width="0.75"/>
<line x1="60" y1="268" x2="60" y2="272" stroke="#5F5E5A" stroke-width="0.5"/>
<line x1="127.9" y1="268" x2="127.9" y2="272" stroke="#5F5E5A" stroke-width="0.5"/>
<line x1="195.7" y1="268" x2="195.7" y2="272" stroke="#5F5E5A" stroke-width="0.5"/>
<line x1="263.6" y1="268" x2="263.6" y2="272" stroke="#5F5E5A" stroke-width="0.5"/>
<line x1="331.3" y1="268" x2="331.3" y2="272" stroke="#5F5E5A" stroke-width="0.5"/>
<line x1="399.2" y1="268" x2="399.2" y2="272" stroke="#5F5E5A" stroke-width="0.5"/>
<line x1="467.1" y1="268" x2="467.1" y2="272" stroke="#5F5E5A" stroke-width="0.5"/>
<line x1="535" y1="268" x2="535" y2="272" stroke="#5F5E5A" stroke-width="0.5"/>
<line x1="602.9" y1="268" x2="602.9" y2="272" stroke="#5F5E5A" stroke-width="0.5"/>
<line x1="202.5" y1="270" x2="202.5" y2="240" stroke="#D85A30" stroke-width="0.5"/>
<line x1="385.7" y1="270" x2="385.7" y2="240" stroke="#D85A30" stroke-width="0.5"/>
<line x1="480.7" y1="270" x2="480.7" y2="240" stroke="#D85A30" stroke-width="0.5"/>
<line x1="569" y1="270" x2="569" y2="240" stroke="#D85A30" stroke-width="0.5"/>
<line x1="93.9" y1="270" x2="93.9" y2="155" stroke="#D85A30" stroke-width="0.5"/>
<line x1="168.6" y1="270" x2="168.6" y2="155" stroke="#D85A30" stroke-width="0.5"/>
<line x1="229.7" y1="270" x2="229.7" y2="155" stroke="#D85A30" stroke-width="0.5"/>
<line x1="351.7" y1="270" x2="351.7" y2="155" stroke="#D85A30" stroke-width="0.5"/>
<line x1="439.9" y1="270" x2="439.9" y2="155" stroke="#D85A30" stroke-width="0.5"/>
<line x1="521.4" y1="270" x2="521.4" y2="155" stroke="#D85A30" stroke-width="0.5"/>
<line x1="73.6" y1="270" x2="73.6" y2="290" stroke="#1D9E75" stroke-width="0.5"/>
<line x1="182.2" y1="270" x2="182.2" y2="290" stroke="#1D9E75" stroke-width="0.5"/>
<line x1="331.3" y1="270" x2="331.3" y2="290" stroke="#1D9E75" stroke-width="0.5"/>
<line x1="467.1" y1="270" x2="467.1" y2="290" stroke="#1D9E75" stroke-width="0.5"/>
<line x1="569" y1="270" x2="569" y2="290" stroke="#1D9E75" stroke-width="0.5"/>
<line x1="87.1" y1="270" x2="87.1" y2="335" stroke="#1D9E75" stroke-width="0.5"/>
<line x1="195.7" y1="270" x2="195.7" y2="335" stroke="#1D9E75" stroke-width="0.5"/>
<line x1="365.3" y1="270" x2="365.3" y2="335" stroke="#1D9E75" stroke-width="0.5"/>
<line x1="487.5" y1="270" x2="487.5" y2="335" stroke="#1D9E75" stroke-width="0.5"/>
<line x1="596.1" y1="270" x2="596.1" y2="335" stroke="#1D9E75" stroke-width="0.5"/>
<line x1="127.9" y1="270" x2="127.9" y2="380" stroke="#1D9E75" stroke-width="0.5"/>
<line x1="243.3" y1="270" x2="243.3" y2="380" stroke="#1D9E75" stroke-width="0.5"/>
<line x1="501.1" y1="270" x2="501.1" y2="380" stroke="#1D9E75" stroke-width="0.5"/>
<line x1="148.3" y1="270" x2="148.3" y2="425" stroke="#1D9E75" stroke-width="0.5"/>
<line x1="535" y1="270" x2="535" y2="425" stroke="#1D9E75" stroke-width="0.5"/>
<line x1="460.3" y1="270" x2="460.3" y2="470" stroke="#1D9E75" stroke-width="0.5" stroke-dasharray="3 3"/>
<circle cx="202.5" cy="270" r="3.5" fill="#D85A30"/>
<circle cx="385.7" cy="270" r="3.5" fill="#D85A30"/>
<circle cx="480.7" cy="270" r="3.5" fill="#D85A30"/>
<circle cx="569" cy="270" r="3.5" fill="#D85A30"/>
<circle cx="93.9" cy="270" r="3.5" fill="#D85A30"/>
<circle cx="168.6" cy="270" r="3.5" fill="#D85A30"/>
<circle cx="229.7" cy="270" r="3.5" fill="#D85A30"/>
<circle cx="351.7" cy="270" r="3.5" fill="#D85A30"/>
<circle cx="439.9" cy="270" r="3.5" fill="#D85A30"/>
<circle cx="521.4" cy="270" r="3.5" fill="#D85A30"/>
<circle cx="73.6" cy="270" r="3.5" fill="#1D9E75"/>
<circle cx="182.2" cy="270" r="3.5" fill="#1D9E75"/>
<circle cx="331.3" cy="270" r="3.5" fill="#1D9E75"/>
<circle cx="467.1" cy="270" r="3.5" fill="#1D9E75"/>
<circle cx="569" cy="270" r="3.5" fill="#1D9E75"/>
<circle cx="87.1" cy="270" r="3.5" fill="#1D9E75"/>
<circle cx="195.7" cy="270" r="3.5" fill="#1D9E75"/>
<circle cx="365.3" cy="270" r="3.5" fill="#1D9E75"/>
<circle cx="487.5" cy="270" r="3.5" fill="#1D9E75"/>
<circle cx="596.1" cy="270" r="3.5" fill="#1D9E75"/>
<circle cx="127.9" cy="270" r="3.5" fill="#1D9E75"/>
<circle cx="243.3" cy="270" r="3.5" fill="#1D9E75"/>
<circle cx="501.1" cy="270" r="3.5" fill="#1D9E75"/>
<circle cx="148.3" cy="270" r="3.5" fill="#1D9E75"/>
<circle cx="535" cy="270" r="3.5" fill="#1D9E75"/>
<circle cx="460.3" cy="270" r="3.5" fill="#FFFFFF" stroke="#1D9E75" stroke-width="1.5"/>
<text class="th" x="202.5" y="220" text-anchor="middle">MRSA</text>
<text class="ts" x="202.5" y="234" text-anchor="middle">1961</text>
<text class="th" x="385.7" y="220" text-anchor="middle">VRE</text>
<text class="ts" x="385.7" y="234" text-anchor="middle">1988</text>
<text class="th" x="480.7" y="220" text-anchor="middle">VRSA</text>
<text class="ts" x="480.7" y="234" text-anchor="middle">2002</text>
<text class="th" x="569" y="220" text-anchor="middle">MCR-1</text>
<text class="ts" x="569" y="234" text-anchor="middle">2015</text>
<text class="th" x="93.9" y="135" text-anchor="middle">Penicillinase</text>
<text class="ts" x="93.9" y="149" text-anchor="middle">1945</text>
<text class="th" x="168.6" y="135" text-anchor="middle">erm(B)</text>
<text class="ts" x="168.6" y="149" text-anchor="middle">1956</text>
<text class="th" x="229.7" y="135" text-anchor="middle">AMEs</text>
<text class="ts" x="229.7" y="149" text-anchor="middle">1965</text>
<text class="th" x="351.7" y="135" text-anchor="middle">ESBL</text>
<text class="ts" x="351.7" y="149" text-anchor="middle">1983</text>
<text class="th" x="439.9" y="135" text-anchor="middle">KPC</text>
<text class="ts" x="439.9" y="149" text-anchor="middle">1996</text>
<text class="th" x="521.4" y="135" text-anchor="middle">NDM-1</text>
<text class="ts" x="521.4" y="149" text-anchor="middle">2008</text>
<text class="th" x="73.6" y="305" text-anchor="middle">Penicillin</text>
<text class="ts" x="73.6" y="319" text-anchor="middle">1942</text>
<text class="th" x="182.2" y="305" text-anchor="middle">Vancomycin</text>
<text class="ts" x="182.2" y="319" text-anchor="middle">1958</text>
<text class="th" x="331.3" y="305" text-anchor="middle">Quinolones</text>
<text class="ts" x="331.3" y="319" text-anchor="middle">1980</text>
<text class="th" x="467.1" y="305" text-anchor="middle">Linezolid</text>
<text class="ts" x="467.1" y="319" text-anchor="middle">2000</text>
<text class="th" x="569" y="305" text-anchor="middle">Ceftaz/avi</text>
<text class="ts" x="569" y="319" text-anchor="middle">2015</text>
<text class="th" x="87.1" y="350" text-anchor="middle">Streptomycin</text>
<text class="ts" x="87.1" y="364" text-anchor="middle">1944</text>
<text class="th" x="195.7" y="350" text-anchor="middle">Methicillin</text>
<text class="ts" x="195.7" y="364" text-anchor="middle">1960</text>
<text class="th" x="365.3" y="350" text-anchor="middle">Imipenem</text>
<text class="ts" x="365.3" y="364" text-anchor="middle">1985</text>
<text class="th" x="487.5" y="350" text-anchor="middle">Daptomycin</text>
<text class="ts" x="487.5" y="364" text-anchor="middle">2003</text>
<text class="th" x="596.1" y="350" text-anchor="middle">Cefiderocol</text>
<text class="ts" x="596.1" y="364" text-anchor="middle">2019</text>
<text class="th" x="127.9" y="395" text-anchor="middle">Tetracycline</text>
<text class="ts" x="127.9" y="409" text-anchor="middle">1950</text>
<text class="th" x="243.3" y="395" text-anchor="middle">Gentamicin</text>
<text class="ts" x="243.3" y="409" text-anchor="middle">1967</text>
<text class="th" x="501.1" y="395" text-anchor="middle">Tigecycline</text>
<text class="ts" x="501.1" y="409" text-anchor="middle">2005</text>
<text class="th" x="148.3" y="440" text-anchor="middle">Erythromycin</text>
<text class="ts" x="148.3" y="454" text-anchor="middle">1953</text>
<text class="th" x="535" y="440" text-anchor="middle">Ceftaroline</text>
<text class="ts" x="535" y="454" text-anchor="middle">2010</text>
<text class="th" x="460.3" y="485" text-anchor="middle">Polymyxin</text>
<text class="ts" x="460.3" y="499" text-anchor="middle">1999 (re-use)</text>
<text class="th" x="378.95" y="525" text-anchor="middle">Cephalosporin generations</text>
<line x1="222.9" y1="550" x2="535" y2="550" stroke="#1D9E75" stroke-width="0.75"/>
<circle cx="222.9" cy="550" r="4" fill="#1D9E75"/>
<circle cx="311.1" cy="550" r="4" fill="#1D9E75"/>
<circle cx="345" cy="550" r="4" fill="#1D9E75"/>
<circle cx="426.4" cy="550" r="4" fill="#1D9E75"/>
<circle cx="535" cy="550" r="4" fill="#1D9E75"/>
<text class="ts" x="222.9" y="544" text-anchor="middle">1st</text>
<text class="ts" x="311.1" y="544" text-anchor="middle">2nd</text>
<text class="ts" x="345" y="544" text-anchor="middle">3rd</text>
<text class="ts" x="426.4" y="544" text-anchor="middle">4th</text>
<text class="ts" x="535" y="544" text-anchor="middle">5th</text>
<text class="ts" x="222.9" y="567" text-anchor="middle">1964</text>
<text class="ts" x="311.1" y="567" text-anchor="middle">1977</text>
<text class="ts" x="345" y="567" text-anchor="middle">1982</text>
<text class="ts" x="426.4" y="567" text-anchor="middle">1994</text>
<text class="ts" x="535" y="567" text-anchor="middle">2010</text>
</svg>
